ffmpeg started on 2016-12-06 at 01:19:54
Report written to "Output/x264/results/ffmpeg/sintelfast1500k.log"
Command line:
Tools/ffmpeg/ffmpeg -benchmark -y -i Input/y4m/sintel.y4m -c:v libx264 -preset fast -b:v 1500k -an Output/x264/encoded/sintelfast1500k.mkv
ffmpeg version N-82227-gdb23fde Copyright (c) 2000-2016 the FFmpeg developers
  built with gcc 5.4.0 (Ubuntu 5.4.0-6ubuntu1~16.04.2) 20160609
  configuration: --prefix=/home/jaroslav/ffmpeg_build --pkg-config-flags=--static --extra-cflags=-I/home/jaroslav/ffmpeg_build/include --extra-ldflags=-L/home/jaroslav/ffmpeg_build/lib --bindir=/home/jaroslav/bin --enable-gpl --enable-libass --enable-libfdk-aac --enable-libfreetype --enable-libmp3lame --enable-libopus --enable-libtheora --enable-libvorbis --enable-libvpx --enable-libx264 --enable-libx265 --enable-nvenc --enable-libmfx --enable-libxvid --enable-libgsm --enable-libopencore-amrnb --enable-version3 --enable-nonfree
  libavutil      55. 35.100 / 55. 35.100
  libavcodec     57. 66.101 / 57. 66.101
  libavformat    57. 57.100 / 57. 57.100
  libavdevice    57.  2.100 / 57.  2.100
  libavfilter     6. 66.100 /  6. 66.100
  libswscale      4.  3.100 /  4.  3.100
  libswresample   2.  4.100 /  2.  4.100
  libpostproc    54.  2.100 / 54.  2.100
Input #0, yuv4mpegpipe, from 'Input/y4m/sintel.y4m':
  Duration: 00:00:20.83, start: 0.000000, bitrate: 2057307 kb/s
    Stream #0:0: Video: rawvideo (I420 / 0x30323449), yuv420p(progressive), 4096x1744, SAR 1:1 DAR 256:109, 24 fps, 24 tbr, 24 tbn, 24 tbc
[libx264 @ 0x458c120] using SAR=1/1
[libx264 @ 0x458c120] using cpu capabilities: MMX2 SSE2Fast SSSE3 SSE4.2 AVX FMA3 AVX2 LZCNT BMI2
[libx264 @ 0x458c120] profile High, level 5.1
[libx264 @ 0x458c120] 264 - core 148 - H.264/MPEG-4 AVC codec - Copyleft 2003-2016 - http://www.videolan.org/x264.html - options: cabac=1 ref=2 deblock=1:0:0 analyse=0x3:0x113 me=hex subme=6 psy=1 psy_rd=1.00:0.00 mixed_ref=1 me_range=16 chroma_me=1 trellis=1 8x8dct=1 cqm=0 deadzone=21,11 fast_pskip=1 chroma_qp_offset=-2 threads=6 lookahead_threads=1 sliced_threads=0 nr=0 decimate=1 interlaced=0 bluray_compat=0 constrained_intra=0 bframes=3 b_pyramid=2 b_adapt=1 b_bias=0 direct=1 weightb=1 open_gop=0 weightp=1 keyint=250 keyint_min=24 scenecut=40 intra_refresh=0 rc_lookahead=30 rc=abr mbtree=1 bitrate=1500 ratetol=1.0 qcomp=0.60 qpmin=0 qpmax=69 qpstep=4 ip_ratio=1.40 aq=1:1.00
Output #0, matroska, to 'Output/x264/encoded/sintelfast1500k.mkv':
  Metadata:
    encoder         : Lavf57.57.100
    Stream #0:0: Video: h264 (libx264) (H264 / 0x34363248), yuv420p, 4096x1744 [SAR 1:1 DAR 256:109], q=-1--1, 1500 kb/s, 24 fps, 1k tbn, 24 tbc
    Metadata:
      encoder         : Lavc57.66.101 libx264
    Side data:
      cpb: bitrate max/min/avg: 0/0/1500000 buffer size: 0 vbv_delay: -1
Stream mapping:
  Stream #0:0 -> #0:0 (rawvideo (native) -> h264 (libx264))
Press [q] to stop, [?] for help
frame=   10 fps=0.0 q=0.0 size=       0kB time=00:00:00.00 bitrate=N/A speed=   0x    frame=   15 fps= 14 q=0.0 size=       0kB time=00:00:00.00 bitrate=N/A speed=   0x    frame=   24 fps= 15 q=0.0 size=       0kB time=00:00:00.00 bitrate=N/A speed=   0x    frame=   33 fps= 16 q=0.0 size=       0kB time=00:00:00.00 bitrate=N/A speed=   0x    frame=   37 fps=9.4 q=0.0 size=       0kB time=00:00:00.00 bitrate=N/A speed=   0x    frame=   43 fps=9.4 q=42.0 size=       1kB time=00:00:00.00 bitrate=5872.0kbits/s speed=0.000219x    frame=   45 fps=6.8 q=45.0 size=       1kB time=00:00:00.08 bitrate=  69.9kbits/s speed=0.0127x    frame=   46 fps=4.8 q=48.0 size=       1kB time=00:00:00.12 bitrate=  46.6kbits/s speed=0.0131x    frame=   52 fps=5.1 q=59.0 size=       1kB time=00:00:00.37 bitrate=  15.6kbits/s speed=0.0371x    frame=   60 fps=5.6 q=62.0 size=       1kB time=00:00:00.70 bitrate=   8.3kbits/s speed=0.0665x    frame=   66 fps=5.9 q=63.0 size=       1kB time=00:00:00.95 bitrate=   6.1kbits/s speed=0.0859x    frame=   76 fps=6.5 q=63.0 size=       1kB time=00:00:01.37 bitrate=   4.3kbits/s speed=0.118x    frame=   83 fps=6.8 q=63.0 size=       1kB time=00:00:01.66 bitrate=   3.5kbits/s speed=0.137x    frame=   91 fps=7.1 q=63.0 size=       1kB time=00:00:02.00 bitrate=   2.9kbits/s speed=0.157x    frame=   98 fps=7.4 q=63.0 size=       1kB time=00:00:02.29 bitrate=   2.6kbits/s speed=0.173x    frame=  105 fps=7.6 q=63.0 size=       1kB time=00:00:02.58 bitrate=   2.3kbits/s speed=0.187x    frame=  112 fps=7.8 q=64.0 size=       1kB time=00:00:02.87 bitrate=   2.0kbits/s speed=0.201x    frame=  119 fps=8.0 q=64.0 size=       1kB time=00:00:03.16 bitrate=   1.9kbits/s speed=0.213x    frame=  126 fps=8.2 q=64.0 size=       1kB time=00:00:03.45 bitrate=   1.7kbits/s speed=0.225x    frame=  133 fps=8.3 q=64.0 size=       1kB time=00:00:03.75 bitrate=   1.6kbits/s speed=0.235x    frame=  141 fps=8.6 q=64.0 size=     972kB time=00:00:04.08 bitrate=1949.4kbits/s speed=0.248x    frame=  148 fps=8.7 q=64.0 size=     972kB time=00:00:04.37 bitrate=1819.4kbits/s speed=0.258x    frame=  156 fps=8.9 q=64.0 size=     972kB time=00:00:04.70 bitrate=1690.7kbits/s speed=0.269x    frame=  163 fps=9.0 q=63.0 size=     972kB time=00:00:05.00 bitrate=1592.0kbits/s speed=0.277x    frame=  171 fps=9.2 q=64.0 size=     972kB time=00:00:05.33 bitrate=1492.6kbits/s speed=0.287x    frame=  178 fps=9.3 q=64.0 size=     972kB time=00:00:05.62 bitrate=1415.1kbits/s speed=0.295x    frame=  185 fps=9.4 q=64.0 size=     972kB time=00:00:05.91 bitrate=1345.3kbits/s speed=0.302x    frame=  191 fps=9.5 q=64.0 size=     972kB time=00:00:06.16 bitrate=1290.8kbits/s speed=0.306x    frame=  201 fps=9.7 q=64.0 size=    1439kB time=00:00:06.58 bitrate=1790.8kbits/s speed=0.318x    frame=  208 fps=9.8 q=64.0 size=    1439kB time=00:00:06.87 bitrate=1714.8kbits/s speed=0.325x    frame=  216 fps=9.9 q=64.0 size=    1439kB time=00:00:07.20 bitrate=1635.6kbits/s speed=0.331x    frame=  221 fps=9.9 q=64.0 size=    1439kB time=00:00:07.41 bitrate=1589.5kbits/s speed=0.332x    frame=  228 fps= 10 q=64.0 size=    1618kB time=00:00:07.70 bitrate=1719.9kbits/s speed=0.337x    frame=  236 fps= 10 q=64.0 size=    1618kB time=00:00:08.04 bitrate=1648.5kbits/s speed=0.344x    frame=  244 fps= 10 q=64.0 size=    1618kB time=00:00:08.37 bitrate=1582.9kbits/s speed=0.35x    frame=  251 fps= 10 q=64.0 size=    1618kB time=00:00:08.66 bitrate=1529.6kbits/s speed=0.355x    frame=  259 fps= 10 q=64.0 size=    1618kB time=00:00:09.00 bitrate=1473.0kbits/s speed=0.361x    frame=  268 fps= 10 q=63.0 size=    1618kB time=00:00:09.37 bitrate=1414.1kbits/s speed=0.367x    frame=  276 fps= 11 q=63.0 size=    1618kB time=00:00:09.70 bitrate=1365.6kbits/s speed=0.372x    frame=  285 fps= 11 q=63.0 size=    1618kB time=00:00:10.08 bitrate=1314.8kbits/s speed=0.378x    frame=  295 fps= 11 q=63.0 size=    1618kB time=00:00:10.50 bitrate=1262.6kbits/s speed=0.386x    frame=  302 fps= 11 q=63.0 size=    1618kB time=00:00:10.79 bitrate=1228.4kbits/s speed=0.383x    frame=  312 fps= 11 q=62.0 size=    2092kB time=00:00:11.20 bitrate=1528.7kbits/s speed=0.391x    frame=  323 fps= 11 q=62.0 size=    2092kB time=00:00:11.66 bitrate=1468.6kbits/s speed=0.399x    frame=  335 fps= 11 q=62.0 size=    2092kB time=00:00:12.16 bitrate=1408.2kbits/s speed=0.407x    frame=  347 fps= 11 q=61.0 size=    2092kB time=00:00:12.66 bitrate=1352.7kbits/s speed=0.416x    frame=  359 fps= 12 q=60.0 size=    2092kB time=00:00:13.16 bitrate=1301.3kbits/s speed=0.424x    frame=  371 fps= 12 q=60.0 size=    2092kB time=00:00:13.66 bitrate=1253.7kbits/s speed=0.432x    frame=  379 fps= 12 q=59.0 size=    2092kB time=00:00:14.00 bitrate=1223.9kbits/s speed=0.435x    frame=  389 fps= 12 q=59.0 size=    2092kB time=00:00:14.41 bitrate=1188.5kbits/s speed=0.441x    frame=  395 fps= 12 q=58.0 size=    2092kB time=00:00:14.66 bitrate=1168.2kbits/s speed=0.44x    frame=  407 fps= 12 q=57.0 size=    2382kB time=00:00:15.16 bitrate=1286.2kbits/s speed=0.447x    frame=  415 fps= 12 q=57.0 size=    2382kB time=00:00:15.50 bitrate=1258.6kbits/s speed=0.45x    frame=  426 fps= 12 q=57.0 size=    2382kB time=00:00:15.95 bitrate=1222.5kbits/s speed=0.456x    frame=  432 fps= 12 q=57.0 size=    2382kB time=00:00:16.20 bitrate=1203.6kbits/s speed=0.457x    frame=  442 fps= 12 q=57.0 size=    2382kB time=00:00:16.62 bitrate=1173.4kbits/s speed=0.461x    frame=  454 fps= 12 q=54.0 size=    2382kB time=00:00:17.12 bitrate=1139.2kbits/s speed=0.467x    frame=  463 fps= 12 q=56.0 size=    2686kB time=00:00:17.50 bitrate=1257.3kbits/s speed=0.47x    frame=  471 fps= 12 q=57.0 size=    2686kB time=00:00:17.83 bitrate=1233.8kbits/s speed=0.472x    frame=  481 fps= 13 q=56.0 size=    2686kB time=00:00:18.25 bitrate=1205.6kbits/s speed=0.477x    frame=  491 fps= 13 q=56.0 size=    2686kB time=00:00:18.66 bitrate=1178.7kbits/s speed=0.48x    frame=  500 fps= 13 q=56.0 size=    2686kB time=00:00:19.04 bitrate=1155.5kbits/s speed=0.483x    frame=  500 fps= 12 q=-1.0 Lsize=    3097kB time=00:00:20.70 bitrate=1225.2kbits/s speed=0.511x    
video:3093kB audio:0kB subtitle:0kB other streams:0kB global headers:0kB muxing overhead: 0.143222%
bench: utime=105.600s
bench: maxrss=1319116kB
[libx264 @ 0x458c120] frame I:8     Avg QP:48.30  size: 15213
[libx264 @ 0x458c120] frame P:269   Avg QP:50.79  size:  7433
[libx264 @ 0x458c120] frame B:223   Avg QP:50.38  size:  4687
[libx264 @ 0x458c120] consecutive B-frames: 37.0%  8.4%  6.6% 48.0%
[libx264 @ 0x458c120] mb I  I16..4: 17.0% 82.9%  0.1%
[libx264 @ 0x458c120] mb P  I16..4:  8.2% 18.4%  0.0%  P16..4:  6.3%  0.3%  0.9%  0.0%  0.0%    skip:65.9%
[libx264 @ 0x458c120] mb B  I16..4:  1.6%  1.0%  0.0%  B16..8:  8.0%  0.1%  0.0%  direct: 1.5%  skip:87.8%  L0:48.5% L1:50.7% BI: 0.8%
[libx264 @ 0x458c120] final ratefactor: 53.64
[libx264 @ 0x458c120] 8x8 transform intra:68.4% inter:98.0%
[libx264 @ 0x458c120] coded y,uvDC,uvAC intra: 2.0% 10.1% 0.0% inter: 0.3% 0.9% 0.0%
[libx264 @ 0x458c120] i16 v,h,dc,p: 69% 24%  4%  3%
[libx264 @ 0x458c120] i8 v,h,dc,ddl,ddr,vr,hd,vl,hu: 11%  6% 82%  0%  0%  0%  0%  0%  0%
[libx264 @ 0x458c120] i4 v,h,dc,ddl,ddr,vr,hd,vl,hu: 31% 23% 16%  7%  8%  5%  5%  3%  3%
[libx264 @ 0x458c120] i8c dc,h,v,p: 99%  0%  0%  0%
[libx264 @ 0x458c120] Weighted P-Frames: Y:0.7% UV:0.0%
[libx264 @ 0x458c120] ref P L0: 42.8% 57.2%
[libx264 @ 0x458c120] ref B L0: 73.3% 26.7%
[libx264 @ 0x458c120] ref B L1: 92.0%  8.0%
[libx264 @ 0x458c120] kb/s:1215.91
